<svg width="33" height="24" viewBox="0 0 33 24" fill="none" xmlns="http://www.w3.org/2000/svg">
<path d="M4.74227 0.0137539C3.16548 0.267082 1.87785 1.28492 1.06009 2.9225C-0.638683 6.32886 -0.263688 11.8976 1.95465 16.2177C4.11426 20.4202 7.83258 23.1978 12.2015 23.8673C13.0057 23.994 14.6728 24.0392 15.5042 23.9623C17.6864 23.7587 19.6924 23.1526 22.0011 22.0126C26.9935 19.5381 31.0958 15.5934 32.3247 12.083C32.8081 10.6988 32.8578 9.32808 32.4648 8.16097C32.2253 7.45074 31.9091 6.93956 31.4166 6.4691C30.9015 5.98506 30.3368 5.65935 29.519 5.39245C28.3895 5.02151 27.0793 4.86318 24.486 4.77723C20.6005 4.65056 20.0177 4.6189 18.5674 4.45604C16.3219 4.20271 14.4424 3.72772 12.7166 2.96774C12.1066 2.70084 11.5599 2.39775 10.5479 1.778C9.50877 1.13564 8.52384 0.647074 7.7603 0.389223C6.84766 0.086134 6.50881 0.0228024 5.64587 0.00470734C5.22569 -0.00433922 4.81907 0.000183105 4.74227 0.0137539Z" fill="#0094FF"/>
<path d="M15.4178 10.6082H18.5103V16.134H17.1849V11.9116H15.4178V10.6082ZM14.3768 14.5268C14.1866 14.3372 14.0796 14.0799 14.0795 13.8117V8.4839H12.7541V13.8116C12.7548 14.4303 13.0015 15.0235 13.4401 15.461C13.8787 15.8985 14.4735 16.1446 15.0938 16.1454H16.1656V14.8236H15.0938C14.8248 14.8233 14.567 14.7166 14.3768 14.5268ZM11.9557 10.6074H10.337L7.98005 13.9584V8.4839H6.65479V16.0597H8.12071L9.41866 14.214L10.717 16.0597H12.3357L10.2282 13.0636L11.9557 10.6074ZM18.3513 8.42021C18.2129 8.28214 18.0293 8.19829 17.834 8.18394C17.6388 8.16958 17.4448 8.22568 17.2876 8.34201C17.1303 8.45833 17.0202 8.62714 16.9773 8.81766C16.9344 9.00819 16.9616 9.20774 17.0539 9.37994C17.1462 9.55215 17.2975 9.68555 17.4802 9.75582C17.6628 9.8261 17.8647 9.82857 18.0491 9.76278C18.2334 9.697 18.3879 9.56735 18.4844 9.39745C18.5809 9.22755 18.613 9.02873 18.5748 8.83721C18.5433 8.67923 18.4655 8.53411 18.3513 8.42021ZM22.9571 13.32L24.8645 10.6082H23.2458L22.1476 12.1693L21.0496 10.6082H19.431L21.3383 13.32L19.414 16.056H21.0328L22.1476 14.471L23.266 16.0605H24.8848L22.9571 13.32Z" fill="white"/>
</svg>
