<svg width="16" height="20" viewBox="0 0 16 20" fill="none" xmlns="http://www.w3.org/2000/svg">
<path fill-rule="evenodd" clip-rule="evenodd" d="M2.71185 5.74447L3.07842 8.98049L2.33663 9.03858C1.3022 9.11958 0.45754 9.8823 0.289855 10.8868C-0.0966182 13.2019 -0.0966183 15.5633 0.289855 17.8784C0.45754 18.8829 1.3022 19.6456 2.33663 19.7266L3.93527 19.8518C6.45925 20.0494 8.99529 20.0494 11.5193 19.8518L13.1179 19.7266C14.1523 19.6456 14.997 18.8829 15.1647 17.8784C15.5512 15.5633 15.5512 13.2019 15.1647 10.8868C14.997 9.8823 14.1523 9.11958 13.1179 9.03858L12.376 8.98048L12.7426 5.74447C12.7858 5.36299 12.7858 4.97799 12.7426 4.59651L12.7183 4.38176C12.4602 2.10387 10.6346 0.301528 8.31397 0.0337382C7.92415 -0.0112461 7.53029 -0.0112461 7.14047 0.0337382C4.81988 0.301528 2.99421 2.10387 2.73618 4.38176L2.71185 4.59651C2.66864 4.97799 2.66864 5.36299 2.71185 5.74447ZM8.1267 1.59509C7.86129 1.56447 7.59314 1.56447 7.32774 1.59509C5.74781 1.77741 4.50483 3.00451 4.32915 4.55538L4.30482 4.77012C4.27468 5.03622 4.27468 5.30477 4.30482 5.57086L4.67752 8.86099C6.70857 8.73322 8.74587 8.73322 10.7769 8.86098L11.1496 5.57086C11.1798 5.30477 11.1798 5.03622 11.1496 4.77012L11.1253 4.55538C10.9496 3.00451 9.70663 1.77741 8.1267 1.59509ZM7.72724 12.8105C6.84206 12.8105 6.12447 13.5143 6.12447 14.3826C6.12447 15.2508 6.84206 15.9547 7.72724 15.9547C8.61243 15.9547 9.33002 15.2508 9.33002 14.3826C9.33002 13.5143 8.61243 12.8105 7.72724 12.8105Z" fill="#626270"/>
</svg>
