<svg width="18" height="18" viewBox="0 0 18 18" fill="none" xmlns="http://www.w3.org/2000/svg">
<path d="M8.55 0C6.26514 0 4.4129 1.83389 4.4129 4.09611C4.4129 6.35833 6.26514 8.19222 8.55 8.19222C10.8349 8.19222 12.6871 6.35833 12.6871 4.09611C12.6871 1.83389 10.8349 0 8.55 0Z" fill="#626270"/>
<path d="M4.1371 10.3768C1.85224 10.3768 0 12.2107 0 14.4729V15.7709C0 16.5936 0.602233 17.2951 1.42236 17.4277C6.14287 18.1908 10.9571 18.1908 15.6776 17.4277C16.4978 17.2951 17.1 16.5936 17.1 15.7709V14.4729C17.1 12.2107 15.2478 10.3768 12.9629 10.3768H12.5868C12.3833 10.3768 12.1811 10.4087 11.9876 10.4712L11.0327 10.7799C9.41948 11.3015 7.68052 11.3015 6.06729 10.7799L5.11243 10.4712C4.91894 10.4087 4.71669 10.3768 4.51315 10.3768H4.1371Z" fill="#626270"/>
</svg>
