<svg width="118" height="24" viewBox="0 0 118 24" fill="none" xmlns="http://www.w3.org/2000/svg">
<path d="M74.5681 17L71.4351 7.64H72.6376L75.3611 15.7715L78.1106 7.64H79.3131L76.1801 17H74.5681ZM82.5584 17.195C81.8694 17.195 81.2671 17.0433 80.7514 16.74C80.2401 16.4323 79.8414 16.0055 79.5554 15.4595C79.2694 14.9092 79.1264 14.2678 79.1264 13.5355C79.1264 12.7685 79.2673 12.1055 79.5489 11.5465C79.8306 10.9832 80.2228 10.5498 80.7254 10.2465C81.2324 9.93883 81.8261 9.785 82.5064 9.785C83.2128 9.785 83.8129 9.9475 84.3069 10.2725C84.8053 10.5975 85.1779 11.0612 85.4249 11.6635C85.6763 12.2658 85.7846 12.983 85.7499 13.815H84.5799V13.399C84.5669 12.5367 84.3914 11.8932 84.0534 11.4685C83.7154 11.0395 83.2128 10.825 82.5454 10.825C81.8304 10.825 81.2866 11.0547 80.9139 11.514C80.5413 11.9733 80.3549 12.632 80.3549 13.49C80.3549 14.3177 80.5413 14.959 80.9139 15.414C81.2866 15.869 81.8174 16.0965 82.5064 16.0965C82.9701 16.0965 83.3731 15.9903 83.7154 15.778C84.0578 15.5657 84.3264 15.2602 84.5214 14.8615L85.6329 15.245C85.3599 15.8647 84.9483 16.3457 84.3979 16.688C83.8519 17.026 83.2388 17.195 82.5584 17.195ZM79.9649 13.815V12.8855H85.1519V13.815H79.9649ZM87.1971 17V9.98H88.2306V11.6765L88.0616 11.4555C88.1439 11.2388 88.2501 11.0395 88.3801 10.8575C88.5144 10.6755 88.6639 10.526 88.8286 10.409C89.0106 10.2617 89.2164 10.149 89.4461 10.071C89.6758 9.993 89.9098 9.9475 90.1481 9.9345C90.3864 9.91717 90.6096 9.93233 90.8176 9.98V11.0655C90.5749 11.0005 90.3084 10.9832 90.0181 11.0135C89.7278 11.0438 89.4591 11.15 89.2121 11.332C88.9868 11.4923 88.8113 11.6873 88.6856 11.917C88.5643 12.1467 88.4798 12.3958 88.4321 12.6645C88.3844 12.9288 88.3606 13.1997 88.3606 13.477V17H87.1971ZM92.1767 8.7385V7.5425H93.3337V8.7385H92.1767ZM92.1767 17V9.98H93.3337V17H92.1767ZM95.9535 17V9.5965C95.9535 9.4145 95.9622 9.23033 95.9795 9.044C95.9969 8.85333 96.0359 8.66917 96.0965 8.4915C96.1572 8.3095 96.2569 8.14267 96.3955 7.991C96.5559 7.81333 96.7314 7.68767 96.922 7.614C97.1127 7.536 97.3055 7.48833 97.5005 7.471C97.6999 7.45367 97.8884 7.445 98.066 7.445H98.9565V8.407H98.131C97.7887 8.407 97.533 8.4915 97.364 8.6605C97.195 8.82517 97.1105 9.0765 97.1105 9.4145V17H95.9535ZM94.764 10.9355V9.98H98.9565V10.9355H94.764ZM100.314 8.7385V7.5425H101.471V8.7385H100.314ZM100.314 17V9.98H101.471V17H100.314ZM106.464 17.195C105.775 17.195 105.172 17.0433 104.657 16.74C104.145 16.4323 103.747 16.0055 103.461 15.4595C103.175 14.9092 103.032 14.2678 103.032 13.5355C103.032 12.7685 103.173 12.1055 103.454 11.5465C103.736 10.9832 104.128 10.5498 104.631 10.2465C105.138 9.93883 105.731 9.785 106.412 9.785C107.118 9.785 107.718 9.9475 108.212 10.2725C108.711 10.5975 109.083 11.0612 109.33 11.6635C109.582 12.2658 109.69 12.983 109.655 13.815H108.485V13.399C108.472 12.5367 108.297 11.8932 107.959 11.4685C107.621 11.0395 107.118 10.825 106.451 10.825C105.736 10.825 105.192 11.0547 104.819 11.514C104.447 11.9733 104.26 12.632 104.26 13.49C104.26 14.3177 104.447 14.959 104.819 15.414C105.192 15.869 105.723 16.0965 106.412 16.0965C106.875 16.0965 107.278 15.9903 107.621 15.778C107.963 15.5657 108.232 15.2602 108.427 14.8615L109.538 15.245C109.265 15.8647 108.854 16.3457 108.303 16.688C107.757 17.026 107.144 17.195 106.464 17.195ZM103.87 13.815V12.8855H109.057V13.815H103.87ZM113.858 17.195C113.204 17.195 112.643 17.0325 112.175 16.7075C111.707 16.3782 111.345 15.934 111.089 15.375C110.838 14.816 110.712 14.1855 110.712 13.4835C110.712 12.7815 110.838 12.151 111.089 11.592C111.345 11.033 111.707 10.5932 112.175 10.2725C112.643 9.9475 113.202 9.785 113.852 9.785C114.515 9.785 115.072 9.94533 115.522 10.266C115.973 10.5867 116.313 11.0265 116.543 11.5855C116.777 12.1445 116.894 12.7772 116.894 13.4835C116.894 14.1812 116.777 14.8117 116.543 15.375C116.313 15.934 115.973 16.3782 115.522 16.7075C115.072 17.0325 114.517 17.195 113.858 17.195ZM114.001 16.1355C114.474 16.1355 114.862 16.0228 115.165 15.7975C115.468 15.5678 115.691 15.2537 115.834 14.855C115.982 14.452 116.055 13.9948 116.055 13.4835C116.055 12.9635 115.982 12.5063 115.834 12.112C115.691 11.7133 115.47 11.4035 115.171 11.1825C114.872 10.9572 114.493 10.8445 114.034 10.8445C113.557 10.8445 113.163 10.9615 112.851 11.1955C112.543 11.4295 112.314 11.7458 112.162 12.1445C112.015 12.5432 111.941 12.9895 111.941 13.4835C111.941 13.9818 112.017 14.4325 112.168 14.8355C112.32 15.2342 112.548 15.5505 112.851 15.7845C113.159 16.0185 113.542 16.1355 114.001 16.1355ZM116.055 17V11.8325H115.925V7.64H117.089V17H116.055Z" fill="#626270"/>
<path d="M63.9637 18.598C64.0038 18.598 64.0601 18.5892 64.1327 18.5716C64.2053 18.554 64.2816 18.5225 64.3617 18.4772C65.2028 18.0143 65.9149 17.5991 66.4981 17.2318C67.0814 16.8644 67.5519 16.5034 67.9099 16.1486C68.2678 15.7939 68.5269 15.4102 68.6871 14.9975C68.8473 14.5849 68.9274 14.0993 68.9274 13.5408V8.99682C68.9274 8.68986 68.8586 8.46971 68.7209 8.33635C68.5832 8.20301 68.3993 8.08601 68.169 7.98537C68.0138 7.91995 67.766 7.82308 67.4255 7.69476C67.0851 7.56645 66.7159 7.43058 66.3179 7.28717C65.9199 7.14376 65.5507 7.01166 65.2103 6.89089C64.8698 6.77013 64.622 6.68207 64.4668 6.62672C64.3917 6.60155 64.3104 6.58016 64.2228 6.56255C64.1352 6.54494 64.0488 6.53613 63.9637 6.53613C63.8786 6.53613 63.7922 6.54745 63.7046 6.5701C63.617 6.59275 63.5357 6.61162 63.4606 6.62672C63.3054 6.66697 63.0576 6.74622 62.7171 6.86447C62.3767 6.98273 62.0075 7.11608 61.6095 7.26452C61.2115 7.41298 60.8411 7.55387 60.4981 7.68722C60.1552 7.82056 59.9086 7.91995 59.7585 7.98537C59.5282 8.08601 59.3442 8.20301 59.2065 8.33635C59.0688 8.46971 59 8.68986 59 8.99682V13.5408C59 14.0993 59.0801 14.5849 59.2403 14.9975C59.4005 15.4102 59.6596 15.7939 60.0175 16.1486C60.3755 16.5034 60.8448 16.8644 61.4255 17.2318C62.0063 17.5991 62.7197 18.0143 63.5657 18.4772C63.6458 18.5225 63.7209 18.554 63.791 18.5716C63.8611 18.5892 63.9187 18.598 63.9637 18.598ZM63.9637 17.3601C63.9187 17.3601 63.8686 17.3513 63.8135 17.3337C63.7585 17.3161 63.6809 17.2796 63.5807 17.2242C62.9049 16.8166 62.3404 16.4657 61.8874 16.1713C61.4343 15.8769 61.0751 15.5951 60.8098 15.3259C60.5444 15.0567 60.3542 14.7623 60.2391 14.4428C60.1239 14.1232 60.0663 13.7345 60.0663 13.2766V9.20061C60.0663 9.1352 60.0763 9.08362 60.0964 9.04588C60.1164 9.00814 60.1564 8.97669 60.2165 8.95152C60.4568 8.85592 60.7309 8.75402 61.0388 8.64583C61.3467 8.53764 61.6646 8.42693 61.9925 8.31371C62.3204 8.20049 62.6371 8.08853 62.9424 7.97782C63.2478 7.86712 63.5207 7.76396 63.761 7.66834C63.801 7.65325 63.8373 7.64318 63.8698 7.63815C63.9024 7.63313 63.9337 7.63061 63.9637 7.63061C63.9937 7.63061 64.025 7.63313 64.0576 7.63815C64.0901 7.64318 64.1264 7.65325 64.1665 7.66834C64.4068 7.76396 64.6783 7.86838 64.9812 7.9816C65.2841 8.09481 65.5983 8.21055 65.9237 8.32881C66.2491 8.44707 66.5657 8.56029 66.8736 8.66848C67.1815 8.77667 67.4581 8.87102 67.7034 8.95152C67.7685 8.97669 67.8098 9.00814 67.8273 9.04588C67.8448 9.08362 67.8536 9.1352 67.8536 9.20061V13.2766C67.8536 13.7345 67.7973 14.1232 67.6846 14.4428C67.572 14.7623 67.383 15.0567 67.1176 15.3259C66.8523 15.5951 66.4931 15.8769 66.0401 16.1713C65.587 16.4657 65.02 16.8166 64.3392 17.2242C64.2441 17.2796 64.169 17.3161 64.1139 17.3337C64.0588 17.3513 64.0088 17.3601 63.9637 17.3601ZM63.3179 15.0881C63.5432 15.0881 63.7234 14.9825 63.8586 14.7711L66.4418 10.6649C66.4819 10.5995 66.5194 10.5303 66.5544 10.4574C66.5895 10.3844 66.607 10.3077 66.607 10.2272C66.607 10.0762 66.5507 9.95668 66.4381 9.86861C66.3254 9.78055 66.199 9.73652 66.0588 9.73652C65.8736 9.73652 65.7209 9.83717 65.6007 10.0385L63.2879 13.7974L62.2516 12.3935C62.1715 12.2878 62.0914 12.2161 62.0113 12.1783C61.9312 12.1406 61.8461 12.1217 61.7559 12.1217C61.6108 12.1217 61.4881 12.1746 61.388 12.2802C61.2879 12.3859 61.2378 12.5117 61.2378 12.6576C61.2378 12.8036 61.2879 12.942 61.388 13.0728L62.7397 14.7711C62.8248 14.8868 62.9136 14.9686 63.0063 15.0164C63.0989 15.0642 63.2028 15.0881 63.3179 15.0881Z" fill="#626270"/>
<g clip-path="url(#clip0_613_3597)">
<path d="M13.9091 6.13534L11.1273 8.30075C9.86281 7.12782 8.17686 6.85714 7.24959 6.85714C6.32231 6.85714 5.31074 7.12782 5.22645 7.84962C5.05785 8.57143 5.64793 9.11278 6.6595 9.38346C7.83967 9.74436 8.93554 10.015 10.6215 10.5564C13.0661 11.2782 14.7521 12.4511 14.7521 15.0677C14.7521 18.7669 11.7174 20.6617 7.67107 20.6617C3.62479 20.6617 0.842975 18.406 0 17.3233L2.86612 14.9774C4.88926 16.8722 6.32231 17.1429 7.50248 17.1429C8.85124 17.1429 10.1157 16.8722 10.2843 15.9699C10.4529 15.3383 9.86281 14.797 8.76694 14.5263C7.41818 14.1654 6.32231 13.8947 5.14215 13.6241C1.77025 12.7218 0.842975 10.5564 0.842975 8.75188C0.842975 6.13534 3.11901 3.5188 7.16529 3.5188C11.3802 3.5188 13.9091 6.13534 13.9091 6.13534ZM31.3587 3.78947H19.1355V20.2105H31.6116V16.4211H23.4347V13.8045H29.0826V10.1955H23.4347V7.57895H31.3587V3.78947ZM15.9322 24H16.8595V0H15.9322V24ZM33.2132 24H34.1405V0H33.2132V24ZM36.4165 20.2105H46.2793C48.8926 20.2105 51.0843 18.4962 51.0843 15.7895C51.0843 13.6241 49.8198 12.2707 47.9653 11.6391C47.9653 11.6391 47.881 11.6391 47.7967 11.6391C47.881 11.6391 47.9653 11.6391 47.9653 11.6391C48.9769 11.188 50.157 10.015 50.157 8.03008C50.157 5.50376 48.0496 3.8797 45.4364 3.8797H36.4165V20.2105ZM40.7157 7.21805H44.1719C44.9306 7.21805 45.605 7.84962 45.605 8.66165C45.605 9.47368 44.9306 10.1053 44.1719 10.1053H40.7157V7.21805ZM44.9306 16.5113H40.7157V13.5338H44.9306C45.6893 13.5338 46.2793 14.1654 46.2793 15.0677C46.2793 15.8797 45.6893 16.5113 44.9306 16.5113Z" fill="black"/>
</g>
<defs>
<clipPath id="clip0_613_3597">
<rect width="51" height="24" fill="white"/>
</clipPath>
</defs>
</svg>
