<svg width="90" height="12" viewBox="0 0 90 12" fill="none" xmlns="http://www.w3.org/2000/svg">
<g clip-path="url(#clip0_690_4932)">
<path d="M0.0483398 8.24098H2.16882C2.3134 9.44579 2.79533 10.4578 4.81942 10.4578C6.12063 10.4578 7.08448 9.73495 7.08448 8.62652C7.08448 7.51808 6.55436 7.13254 4.57846 6.79519C1.73509 6.40965 0.337496 5.54218 0.337496 3.32531C0.337496 1.3976 2.02424 -0.0963745 4.48207 -0.0963745C7.03629 -0.0963745 8.57846 1.06025 8.81942 3.3735H6.79533C6.55436 2.12049 5.87966 1.59037 4.48207 1.59037C3.13268 1.59037 2.40979 2.21688 2.40979 3.13254C2.40979 4.0964 2.79533 4.57832 4.86762 4.86748C7.6628 5.25302 9.15677 6.0723 9.15677 8.43375C9.15677 10.506 7.42183 12.0964 4.77123 12.0964C1.59051 12.0964 0.241111 10.506 0.0483398 8.24098Z" fill="#00AFAA"/>
<path d="M13.4458 0.0479431H16.4338L19.5663 8.14433L22.6506 0.0479431H25.5904V11.9516H23.3735V2.93951L19.8072 11.9516H19.0844L15.4217 2.93951V11.9516H13.4458V0.0479431Z" fill="#00AFAA"/>
<path d="M59.2286 1.78288H55.9033V0.0479431H64.819V1.78288H61.4937V11.9516H59.2286V1.78288Z" fill="#00AFAA"/>
<path d="M69.7354 5.63832H65.2534V7.37326H69.7354V5.63832Z" fill="#00AFAA"/>
<path d="M40.289 11.9516L36.3372 0.0479431H33.3975L29.3975 11.9516H31.5179L34.7469 1.83108L36.3854 6.9877H34.9396L34.4095 8.72264H36.9155L37.9758 11.9516H40.289Z" fill="#00AFAA"/>
<path d="M75.036 0.0479431H72.771V11.9516H75.036V0.0479431Z" fill="#00AFAA"/>
<path d="M83.4699 0.0479431H79.8555V11.9516H82.0723V10.2166V1.78288H83.3735C86.1687 1.78288 87.3735 3.32505 87.3735 5.87927V6.02385C87.3735 8.24072 86.4579 9.6865 84.5784 10.072V11.9034C88.0482 11.5178 89.735 9.20457 89.735 6.02385V5.87927C89.6868 2.40939 87.6627 0.0479431 83.4699 0.0479431Z" fill="#00AFAA"/>
<path d="M49.9275 6.79518C51.4215 6.40964 52.5781 5.44578 52.5781 3.61446V3.51807C52.5781 1.10843 50.7468 0 48.0962 0H44.0962V11.9036H46.3131V1.73494H48.0962C49.542 1.73494 50.3612 2.21687 50.3612 3.56627V3.61446C50.3612 4.86747 49.5902 5.49398 48.0962 5.49398H47.7106V7.08434L50.8432 11.9036H53.2528L49.9275 6.79518Z" fill="#00AFAA"/>
</g>
<defs>
<clipPath id="clip0_690_4932">
<rect width="89.7349" height="12" fill="white"/>
</clipPath>
</defs>
</svg>
