<svg width="39" height="39" viewBox="0 0 39 39" fill="none" xmlns="http://www.w3.org/2000/svg">
<path d="M19.4879 39C22.1604 39 24.6718 38.4926 27.0223 37.4777C29.3727 36.4628 31.4455 35.0533 33.2406 33.2491C35.0356 31.4448 36.4443 29.3668 37.4666 27.0149C38.4888 24.6629 39 22.158 39 19.5C39 16.842 38.4888 14.3371 37.4666 11.9851C36.4443 9.63319 35.0316 7.55513 33.2284 5.75093C31.4254 3.9467 29.3486 2.53717 26.9981 1.52232C24.6477 0.507441 22.1362 0 19.4638 0C16.8074 0 14.304 0.507441 11.9536 1.52232C9.60311 2.53717 7.53437 3.9467 5.74735 5.75093C3.96036 7.55513 2.55572 9.63319 1.53343 11.9851C0.511144 14.3371 0 16.842 0 19.5C0 22.158 0.511144 24.6629 1.53343 27.0149C2.55572 29.3668 3.96438 31.4448 5.75942 33.2491C7.55448 35.0533 9.62725 36.4628 11.9777 37.4777C14.3282 38.4926 16.8316 39 19.4879 39ZM17.3629 28.8272C16.9926 28.8272 16.6505 28.7426 16.3365 28.5734C16.0226 28.4043 15.7207 28.1345 15.4309 27.7639L10.9393 22.1338C10.6012 21.6989 10.4322 21.2317 10.4322 20.7323C10.4322 20.2491 10.5972 19.8302 10.9273 19.4759C11.2573 19.1214 11.6718 18.9442 12.1709 18.9442C12.4768 18.9442 12.7585 19.0087 13.0161 19.1376C13.2737 19.2664 13.5312 19.5081 13.7888 19.8624L17.2662 24.526L24.9696 12.0335C25.3721 11.373 25.8873 11.0427 26.5151 11.0427C26.982 11.0427 27.4046 11.1877 27.783 11.4777C28.1613 11.7677 28.3505 12.1704 28.3505 12.6859C28.3505 12.9275 28.2901 13.1732 28.1693 13.4229C28.0486 13.6726 27.9238 13.9102 27.795 14.1357L19.174 27.7639C18.7393 28.4728 18.1356 28.8272 17.3629 28.8272Z" fill="#53B9D0"/>
</svg>
