<svg width="24" height="24" viewBox="0 0 24 24" fill="none" xmlns="http://www.w3.org/2000/svg">
<path fill-rule="evenodd" clip-rule="evenodd" d="M21.0101 11.1714L21.0127 14.7943C20.9872 15.1394 20.9543 15.4842 20.9141 15.8283C20.8468 16.4037 20.379 16.8678 19.7916 16.9335C17.9519 17.1391 16.0481 17.1391 14.2083 16.9335C13.6209 16.8678 13.1531 16.4037 13.0858 15.8283C12.8661 13.9492 12.8661 12.051 13.0858 10.172C13.1531 9.59661 13.6209 9.13246 14.2083 9.06681C16.0481 8.86119 17.9519 8.86119 19.7916 9.06681C20.379 9.13246 20.8468 9.59661 20.9141 10.172C20.953 10.5046 20.985 10.8378 21.0101 11.1714ZM17 11.5001C16.1715 11.5001 15.5 12.1717 15.5 13.0001C15.5 13.8286 16.1715 14.5001 17 14.5001C17.8284 14.5001 18.5 13.8286 18.5 13.0001C18.5 12.1717 17.8284 11.5001 17 11.5001Z" fill="#626270"/>
<path d="M20.4036 7.03985C20.559 7.30911 20.2672 7.61063 19.9582 7.57609C18.0077 7.3581 15.9922 7.3581 14.0417 7.57609C12.7723 7.71796 11.7457 8.7175 11.596 9.99776C11.3627 11.9925 11.3627 14.0077 11.596 16.0025C11.7457 17.2828 12.7723 18.2823 14.0417 18.4242C15.9922 18.6422 18.0077 18.6422 19.9582 18.4242C20.2693 18.3894 20.5635 18.693 20.4065 18.9638C19.6279 20.3066 18.2398 21.2438 16.6268 21.4135L15.9749 21.4821C12.6641 21.8305 9.32462 21.8076 6.01887 21.4136L5.58692 21.3622C3.8048 21.1498 2.39275 19.7575 2.15538 17.9785C1.71448 14.6742 1.71448 11.326 2.15538 8.02179C2.39275 6.24282 3.8048 4.85046 5.58692 4.6381L6.01886 4.58663C9.32461 4.1927 12.6641 4.16973 15.9749 4.51813L16.6268 4.58673C18.2412 4.75661 19.6271 5.69522 20.4036 7.03985Z" fill="#626270"/>
</svg>
